PathFileType        4      (X/Y/Z)      C:\Users\pc\Desktop\IMUTRC\Sujet_04\Sujet_04_velo_100.trc         
DataRate	CameraRate	NumFrames	NumMarkers	Units	OrigDataRate	OrigDataStartFrame	OrigNumFrames
60.0	60.0	4	64	mm	60.0	244	975
Frame#	Time	pHipOrigin			pRightASI			pLeftASI			pRightCSI			pLeftCSI			pRightIschialTub			pLeftIschialTub			pSacrum			pL5SpinalProcess			pL3SpinalProcess			pT12SpinalProcess			pIJ			pT4SpinalProcess			pT8SpinalProcess			pPX			pC7SpinalProcess			pTopOfHead			pRightAuricularis			pLeftAuricularis			pBackOfHead			pRightAcromion			pLeftAcromion			pRightArmLatEpicondyle			pRightArmMedEpicondyle			pLeftArmLatEpicondyle			pLeftArmMedEpicondyle			pRightUlnarStyloid			pRightRadialStyloid			pRightOlecranon			pLeftUlnarStyloid			pLeftRadialStyloid			pLeftOlecranon			pRightTopOfHand			pRightPinky			pRightBallHand			pLeftTopOfHand			pLeftPinky			pLeftBallHand			pRightGreaterTrochanter			pRightKneeLatEpicondyle			pRightKneeMedEpicondyle			pRightPatella			pLeftGreaterTrochanter			pLeftKneeLatEpicondyle			pLeftKneeMedEpicondyle			pLeftPatella			pRightTibialTub			pRightLatMalleolus			pRightMedMalleolus			pLeftTibialTub			pLeftLatMalleolus			pLeftMedMalleolus			pRightHeelFoot			pRightFirstMetatarsal			pRightFifthMetatarsal			pRightPivotFoot			pRightHeelCenter			pRightToe			pLeftHeelFoot			pLeftFirstMetatarsal			pLeftFifthMetatarsal			pLeftPivotFoot			pLeftHeelCenter			pLeftToe			
		X1	Y1	Z1	X2	Y2	Z2	X3	Y3	Z3	X4	Y4	Z4	X5	Y5	Z5	X6	Y6	Z6	X7	Y7	Z7	X8	Y8	Z8	X9	Y9	Z9	X10	Y10	Z10	X11	Y11	Z11	X12	Y12	Z12	X13	Y13	Z13	X14	Y14	Z14	X15	Y15	Z15	X16	Y16	Z16	X17	Y17	Z17	X18	Y18	Z18	X19	Y19	Z19	X20	Y20	Z20	X21	Y21	Z21	X22	Y22	Z22	X23	Y23	Z23	X24	Y24	Z24	X25	Y25	Z25	X26	Y26	Z26	X27	Y27	Z27	X28	Y28	Z28	X29	Y29	Z29	X30	Y30	Z30	X31	Y31	Z31	X32	Y32	Z32	X33	Y33	Z33	X34	Y34	Z34	X35	Y35	Z35	X36	Y36	Z36	X37	Y37	Z37	X38	Y38	Z38	X39	Y39	Z39	X40	Y40	Z40	X41	Y41	Z41	X42	Y42	Z42	X43	Y43	Z43	X44	Y44	Z44	X45	Y45	Z45	X46	Y46	Z46	X47	Y47	Z47	X48	Y48	Z48	X49	Y49	Z49	X50	Y50	Z50	X51	Y51	Z51	X52	Y52	Z52	X53	Y53	Z53	X54	Y54	Z54	X55	Y55	Z55	X56	Y56	Z56	X57	Y57	Z57	X58	Y58	Z58	X59	Y59	Z59	X60	Y60	Z60	X61	Y61	Z61	X62	Y62	Z62	X63	Y63	Z63	X64	Y64	Z64	
244	4.05	4.920011254230237E-14	1250.02225	5.863441087832831E-14	79.29850046573415	1329.77542	160.10869543616607	102.62653395203421	1351.39633	-132.1432657840197	48.020937974530135	1411.73238	136.82546359541578	67.09049309097766	1429.48177	-102.402737062159	-75.28144904989502	1197.31011	50.57276119749106	-65.75034591039311	1206.18481	-68.99938089882573	-66.31810262409263	1286.47404	-2.5889951335431327	-4.7587861747816955	1383.32143	8.96924304068115	61.55473680354312	1484.04033	23.691455539150468	124.55737886017646	1574.57417	38.081720239194645	388.61545584132375	1606.85664	74.88168678432851	271.1946485151796	1711.08968	67.82177011768661	197.73703976032812	1655.28033	53.5737465816882	291.4614539276881	1526.50785	55.55879831302131	313.2448261171528	1740.98968	76.70080698484236	490.9578251239849	1903.59323	90.47303162916813	449.3736690625864	1815.85879	156.00069223219933	446.18608081943137	1822.29145	18.954468980355927	399.8305200835037	1843.61456	89.72985357864277	297.2175440851724	1686.13331	261.82643459165064	339.11656210957136	1733.18709	-113.18644125985966	326.6644366403747	1362.23657	255.7781201369561	316.4798697050603	1361.93876	189.52625052307502	382.36692067956227	1403.63198	-83.2328196353948	351.5381687276655	1405.35927	-23.697671007346315	438.86942890507913	1132.5665	204.54623780264288	486.25433632074976	1156.62944	212.37001184199346	298.0562132924156	1351.03896	221.31351598253877	436.09147529283473	1168.3631	24.159241879609596	486.37187182029277	1185.87426	31.263965568831026	342.7914770114301	1396.66326	-59.510860679939555	662.0794653124632	1085.69141	287.8288917174673	565.751805833846	1064.0705	251.32912428465522	502.1148160794355	1107.01451	211.81286417725798	659.5573228148626	1079.02049	3.0391252589762985	555.6854886285118	1077.17408	19.909827900955577	493.7473208492422	1134.41291	38.29311746293388	5.560167978969702	1234.95313	179.99624454416528	340.98608652160675	966.03187	246.71542259207433	356.44077334099177	954.35777	164.7810756192863	376.0919137828755	998.55258	202.56294410971776	14.586719188457835	1227.56747	-175.9083608930876	294.90812119542113	894.79603	-180.51253754591357	312.1934309501231	899.73965	-98.29274256425175	337.2601622044162	929.75877	-145.606504306366	367.9738800643354	904.08766	199.1892253471584	52.708533978177	649.58034	93.39391216362375	73.67492205881979	658.15723	31.09343481298479	354.72966494674324	857.98687	-146.19199241241728	221.25300106874158	462.25867	-176.55629370833176	230.3980911566873	459.69751	-110.98723978047754	-22.498036733179017	608.72099	40.182236854343095	123.88853376284729	505.32181	23.01472933244819	105.68256816932623	499.66344	105.46936975607764	133.84260818821443	487.98934	66.28982203921373	12.23652215210545	584.77717	46.180525807270044	204.76760356184852	432.71605	78.07556350349928	162.99308354220722	384.47104	-134.9791327309116	332.8674738640529	348.55531	-87.18296760374554	333.7491866404682	338.07244	-171.1955528082654	356.6095134037271	337.83419	-127.08725660338881	204.93410001930016	376.72801	-133.5504763641743	444.65045256759913	316.15372	-123.44329679743916	
245	4.067	4.920011254230237E-14	1250.02225	5.863441087832831E-14	78.24750354974817	1329.95411	160.52407315774965	103.97071412250575	1350.80072	-131.56061337364872	47.34229598481352	1411.97062	136.85063532347422	68.43308828853635	1429.00528	-102.28526810459013	-75.8321262801067	1197.66748	50.10180745228205	-65.3323589492155	1206.18481	-69.4278636619394	-66.17546070589698	1286.65272	-3.252962429705736	-4.4850172116998355	1383.38099	8.739523604731374	61.92867547015696	1483.92121	23.766447086747913	124.99321046073376	1574.33593	38.415790735431045	388.93224117184377	1606.43971	76.09316259744543	271.61736741376245	1710.73231	68.78885699660746	198.14350542032017	1654.98252	54.24347131450551	291.8149387153282	1526.15048	56.3507162803683	313.69115351964626	1740.57275	77.88134720537003	491.3071310200071	1903.11674	92.27923296706047	449.65375370341803	1815.26317	157.63173997940663	446.6796047135493	1821.99365	20.561906991084356	400.240126280112	1843.13806	91.32995684024809	297.2972739980512	1685.47814	262.8480732275158	340.234183896906	1733.0084	-111.94717039076976	326.84117520397257	1361.70051	256.17408233456763	316.57270589203745	1361.46227	189.9148651158112	383.20447191438586	1403.39373	-83.62459528094394	352.17695020744907	1404.82321	-24.23367231143564	438.8898827840528	1132.14957	203.8293113828933	486.3350917328781	1156.21251	211.4469732576363	298.1799914998581	1350.56247	221.83168030769275	436.460674361599	1167.5888	22.838670213048545	486.7720141420907	1184.98083	30.072929546367305	343.50682735127964	1396.30589	-59.95561076996458	662.4014614617267	1084.91711	286.08141460026104	565.914900398447	1063.47488	249.9482446570636	502.1646282385301	1106.53802	210.76028994880352	659.8426054186855	1078.00794	1.711204754971618	555.9634364832117	1076.22109	18.665825094460445	494.0709019714187	1133.57905	37.010823798529685	4.104296803780642	1236.97823	180.2070886461781	352.5954486287287	987.11673	254.15727003628615	369.5841733120337	975.3235	172.56852894924054	386.4352559803807	1020.88823	209.97858147086947	13.183808369424042	1226.85273	-175.81971891861727	272.2475624847179	877.34444	-181.4804234679976	290.2571398361687	881.21595	-99.32408464442712	316.90194439319316	909.6269	-146.79573013239883	380.7417576284189	925.58945	206.4364895883926	69.09459217089662	667.27018	99.39346592763873	89.84752690993261	676.50225	37.11659708091031	332.7697729893226	839.5823	-147.43679426207552	198.63073321594732	444.03278	-177.47854636293917	207.8141077339259	441.47162	-111.86386682805275	-4.605734499944042	622.83712	47.328218872594675	145.5810606877053	524.61981	33.11439461871928	127.48994838428305	520.51005	115.70591186344522	156.16971595247313	508.89551	76.86777458724862	31.00047226556622	600.38235	53.994661673746634	228.99115246713495	456.83855	90.1723197482367	138.3453907175069	367.85331	-134.97937872828746	307.33344957255997	327.64914	-87.6835332868957	307.5748035567232	316.57065	-171.62530706800442	330.6176404085552	315.97503	-127.67015501113562	180.04934534908244	358.97861	-133.74056719924636	417.95633550667617	291.97165	-124.21446915828986	
246	4.083	4.920011254230237E-14	1250.02225	5.863441087832831E-14	77.10524775925344	1330.01367	161.01602616727521	105.26191984850146	1350.32422	-130.85576006830365	46.6563115855293	1412.03018	136.9597311769183	69.71538318550884	1428.70747	-101.96170107073422	-76.37546876119525	1197.90573	49.54693600956353	-64.86874638100575	1206.24437	-69.89463085508599	-66.08578680430107	1286.83141	-3.7947211704497654	-4.256889176539003	1383.38099	8.548101454566723	62.21134883438595	1483.80208	23.918006261842887	125.33043434933867	1574.15724	38.910352984550585	389.11214202082294	1606.1419	77.41949812853727	271.8575762237722	1710.43451	69.90908802353619	198.40573899389597	1654.74428	55.111958141918365	292.0698375397809	1525.91223	57.30312080529069	313.8710543686253	1740.27494	79.20768273646185	491.6344109198949	1902.6998	94.33719259278917	449.751314167356	1814.78667	159.41593064205352	447.1128270745126	1821.69584	22.375457166420404	400.5128697439444	1842.84025	93.04491462452057	297.24012066195735	1685.00164	263.98455749303525	341.16928916779153	1732.94884	-110.55476303411648	327.0252626050141	1361.28358	256.486128067238	316.4137978794988	1361.1049	190.28145494498142	384.1715523654306	1403.33417	-84.04732183997123	353.0601270493048	1404.40628	-24.663732387017717	438.6585924635108	1131.7922	203.09036019957767	486.1641029454905	1155.73601	210.50190990971316	298.18156881232653	1350.2051	222.29687018837092	436.8225322533639	1166.87406	21.602008583552646	487.17950530133226	1184.14697	28.797977058962346	344.38999653269093	1396.18676	-60.38566441767054	662.5173466789511	1084.08324	284.27362186157984	565.7879675660677	1062.8197	248.49970057055324	501.91707825152105	1106.06152	209.72396895893996	660.0602376519103	1076.81671	0.6733128805157662	556.1884098934357	1075.2681	17.544023182939384	494.38712659570706	1132.74518	35.81245302694282	2.7013847521785266	1238.76508	180.29574470896895	362.7531184522795	1008.08246	260.7956782119654	381.19195810668725	996.22967	179.5451865127742	395.2886073759613	1043.0452	216.54515272388812	12.047316443460147	1226.67405	-175.87686582683497	250.86613638560578	862.99006	-183.05511568970593	269.2569935806697	865.67034	-100.90769535560314	297.33564578188555	892.59224	-148.33845483439234	392.8058125817146	947.32948	213.03030408416527	87.58320366925152	681.02894	106.97212492151078	107.74874763263526	690.97575	44.64385894277499	311.0453579045065	823.91756	-148.95693472683962	172.00425886517812	430.03577	-178.53974092546255	181.3171831155745	427.41505	-112.95600341104151	16.114965948143436	631.83094	56.455039843290166	171.2840905046598	541.23754	45.21374601473019	153.35345709836844	538.73594	127.90385565051972	182.63688276912214	527.41921	89.41447888500241	52.84455193764314	611.52039	63.81164593534431	258.1865413672284	479.6507	104.39514435444275	109.6095813577665	355.76228	-135.1259078105785	277.6184789869259	310.79316	-88.71898898725281	276.9221120327336	299.11906	-172.57369810635961	300.26965986811274	298.16607	-128.7187157530228	151.0308626251131	345.63678	-134.03865545663237	386.8898435735713	271.54198	-125.74866723195287	
247	4.1	4.920011254230237E-14	1250.02225	5.863441087832831E-14	76.35896182681469	1330.13279	161.33123418532685	106.28513579683496	1349.84773	-130.47030010050423	46.23674731188329	1412.20887	136.9230240593538	70.76795741396322	1428.3501	-101.91188891163965	-76.77300184339913	1198.20354	49.25849235292763	-64.54935947133616	1206.30393	-70.16262829319261	-65.95782847267222	1286.95053	-4.290854304161641	-3.9904690509008103	1383.38099	8.402298483558141	62.5852875009998	1483.74252	23.99299780944033	125.68969066195406	1573.97856	39.15316460627823	389.45095088234063	1605.78453	78.3792438304589	272.2493595297658	1710.1367	70.74663283048368	198.8651650100433	1654.50603	55.65948074719324	292.39972791183095	1525.61442	57.881586663599236	314.29377326720817	1739.97713	80.17476961538267	492.21185251152224	1902.16375	95.95196535264077	450.05340948343314	1814.19106	160.79523295717675	447.7122921971378	1821.33847	23.73849981507672	400.9445007041188	1842.42332	94.39327368661012	297.3801521079906	1684.40602	264.80008396429275	342.21769093250407	1732.7106	-109.49065984403215	327.2843479815291	1360.80709	256.4242427937389	316.4137978794988	1360.74753	190.28145494498142	385.10769599131777	1403.09592	-84.59957638265132	353.91235421025084	1403.87023	-25.223335767141492	438.56417896406515	1131.3157	202.2365557261633	486.0917206374871	1155.25952	209.3963688972274	298.26547884939157	1349.7286	222.30421136537012	437.26830784263836	1166.15932	20.37268170317992	487.66355766019524	1183.3131	27.614282213497887	345.2878569611135	1395.82939	-60.98355865570332	662.5876062891433	1083.18981	282.50411355293136	565.744943538185	1062.10496	247.05851174936268	501.76812065557573	1105.52547	208.5271690719454	660.3617940105206	1075.68504	-0.35723658437262884	556.48995982417	1074.37468	16.51346605760665	494.7416433104727	1131.91132	34.65970143451199	1.931483887953135	1240.49237	180.39749172496937	371.20996869278184	1026.60616	265.1291362485704	390.5188724870708	1014.57469	184.08160085648146	402.417537112459	1062.40277	220.59332815667005	10.987401038006524	1226.4358	-175.84276794886443	233.11656309076764	852.32851	-184.10067409829367	251.89603487856775	854.11536	-102.04608995116806	280.9580336251714	879.78647	-149.6021985219921	403.9169188573135	966.38924	217.469143875614	107.364605866515	688.83153	115.72082067353004	126.58351682995158	699.19527	53.098347173627495	292.7466706036045	811.11178	-150.00825823252652	144.65668439834914	420.50589	-178.6070842476493	153.96960222086943	417.76605	-113.02335439367272	38.83069473301448	635.1664	66.94016386479231	198.78914153532025	553.03076	57.978088973584846	181.1029111515455	552.01821	140.7741334100055	210.91341963692088	541.17798	102.54225828065874	76.6983563888226	617.11919	74.81911440618677	289.0218888435525	497.99571	118.71917059130642	80.41909200760455	348.43618	-134.42438862354157	247.4105375529612	298.94038	-88.95202968575855	245.7764496604133	286.96847	-172.7196741428634	269.43604322846284	285.53898	-129.0487791905681	121.48111053445966	337.17901	-133.5799555517675	355.3377219691351	256.41329	-126.56436034082955	
